<svg height="496pt" viewBox="-64 0 496 496" width="496pt" xmlns="http://www.w3.org/2000/svg"><g fill="#f0bc5e"><path d="m208 160h128v80h-128zm0 0"/><path d="m280 280h32v144h-32zm0 0"/><path d="m216 312h32v112h-32zm0 0"/><path d="m152 344h32v80h-32zm0 0"/><path d="m88 376h32v48h-32zm0 0"/><path d="m192 224h-128v-176h128zm0 0"/></g><path d="m368 16h-25.222656l2.664062-16h-114.890625l2.664063 16h-201.214844v32h-32v448h336v-32h32zm-41.449219 0-5.335937 32h-66.445313l-5.335937-32zm-27.910156 84.167969c3.457031 3.113281 5.359375 7.320312 5.359375 11.832031 0 8.824219-7.175781 16-16 16s-16-7.175781-16-16c0-4.511719 1.902344-8.71875 5.359375-11.832031l2.640625-2.382813v-33.785156h16v33.785156zm21.359375 379.832031h-304v-416h16v400h288zm32-32h-304v-416h187.886719l5.335937 32h22.777344v26.960938c-5.121094 5.832031-8 13.3125-8 21.039062 0 17.648438 14.351562 32 32 32s32-14.351562 32-32c0-7.726562-2.878906-15.207031-8-21.039062v-26.960938h22.777344l5.335937-32h11.886719zm0 0"/><path d="m64 416h272v16h-272zm0 0"/><path d="m96 80h64v16h-64zm0 0"/><path d="m96 112h64v16h-64zm0 0"/><path d="m96 144h64v16h-64zm0 0"/><path d="m96 176h64v16h-64zm0 0"/><path d="m208 160h16v16h-16zm0 0"/><path d="m240 160h96v16h-96zm0 0"/><path d="m208 192h16v16h-16zm0 0"/><path d="m240 192h96v16h-96zm0 0"/><path d="m208 224h16v16h-16zm0 0"/><path d="m240 224h96v16h-96zm0 0"/></svg>